<svg version="1.1" xmlns="http://www.w3.org/2000/svg" xmlns:xlink="http://www.w3.org/1999/xlink" width="1042" height="1042" viewBox="0,0,1042,1042"><defs><linearGradient x1="107.66665" y1="571.49305" x2="521" y2="571.49305" gradientUnits="userSpaceOnUse" id="color-1"><stop offset="0" stop-color="#2b7a00"/><stop offset="0.125" stop-color="#57a805"/><stop offset="0.25" stop-color="#57a805"/><stop offset="0.375" stop-color="#2b7a00"/><stop offset="0.5" stop-color="#57a805"/><stop offset="0.625" stop-color="#57a805"/><stop offset="0.75" stop-color="#2b7a00"/><stop offset="0.875" stop-color="#57a805"/><stop offset="1" stop-color="#57a805"/></linearGradient><linearGradient x1="934.33335" y1="571.49305" x2="521" y2="571.49305" gradientUnits="userSpaceOnUse" id="color-2"><stop offset="0" stop-color="#2b7a00"/><stop offset="0.125" stop-color="#57a805"/><stop offset="0.25" stop-color="#57a805"/><stop offset="0.375" stop-color="#2b7a00"/><stop offset="0.5" stop-color="#57a805"/><stop offset="0.625" stop-color="#57a805"/><stop offset="0.75" stop-color="#2b7a00"/><stop offset="0.875" stop-color="#57a805"/><stop offset="1" stop-color="#57a805"/></linearGradient><linearGradient x1="107.66665" y1="571.49305" x2="521" y2="571.49305" gradientUnits="userSpaceOnUse" id="color-3"><stop offset="0" stop-color="#2b7a00"/><stop offset="0.125" stop-color="#57a805"/><stop offset="0.25" stop-color="#57a805"/><stop offset="0.375" stop-color="#2b7a00"/><stop offset="0.5" stop-color="#57a805"/><stop offset="0.625" stop-color="#57a805"/><stop offset="0.75" stop-color="#2b7a00"/><stop offset="0.875" stop-color="#57a805"/><stop offset="1" stop-color="#57a805"/></linearGradient><linearGradient x1="934.33335" y1="571.49305" x2="521" y2="571.49305" gradientUnits="userSpaceOnUse" id="color-4"><stop offset="0" stop-color="#2b7a00"/><stop offset="0.125" stop-color="#57a805"/><stop offset="0.25" stop-color="#57a805"/><stop offset="0.375" stop-color="#2b7a00"/><stop offset="0.5" stop-color="#57a805"/><stop offset="0.625" stop-color="#57a805"/><stop offset="0.75" stop-color="#2b7a00"/><stop offset="0.875" stop-color="#57a805"/><stop offset="1" stop-color="#57a805"/></linearGradient></defs><g fill="none" fill-rule="nonzero" stroke="none" stroke-width="1" stroke-linecap="butt" stroke-linejoin="miter" stroke-miterlimit="10" stroke-dasharray="" stroke-dashoffset="0" font-family="none" font-weight="none" font-size="none" text-anchor="none" style="mix-blend-mode: normal"><path d="M0,1042v-1042h1042v1042z" fill="none"/><g><path d="M305.0777,661.57832c39.68514,-6.5953 20.5534,-129.58607 -6.643,-237.34169c-27.1964,-107.75562 -62.45745,-200.27609 -21.07711,-201.19357c41.38034,-0.91748 159.40207,89.76805 203.99163,74.8832c44.58955,-14.88485 15.74693,-135.34006 24.40186,-176.85957c8.65493,-41.51951 54.80742,-4.10331 17.22578,87.16599c-37.58164,91.2693 -158.89741,236.3917 -160.27749,277.51421c-1.38008,41.12251 117.17553,-21.75487 99.84872,-96.15717c-17.32681,-74.40229 -170.53603,-160.3295 -216.19919,-126.58143c-45.66315,33.74806 16.21976,187.1714 5.35744,189.86061c-10.86232,2.68922 -94.46987,-145.35569 -128.05372,-170.569c-33.58385,-25.21331 -17.14398,72.40497 0.60863,130.07073c17.75261,57.66576 36.81796,75.37899 69.20185,102.92402c32.38389,27.54503 78.08631,64.92185 59.21886,55.0186c-18.86745,-9.90325 -102.30476,-67.08657 -93.61501,-39.22624c8.68975,27.86033 106.32562,137.0866 146.01076,130.49131z" fill="url(#color-1)"/><path d="M736.9223,661.57832c-39.68514,-6.5953 -20.5534,-129.58607 6.643,-237.34169c27.1964,-107.75562 62.45745,-200.27609 21.07711,-201.19357c-41.38034,-0.91748 -159.40207,89.76805 -203.99163,74.8832c-44.58955,-14.88485 -15.74693,-135.34006 -24.40186,-176.85957c-8.65493,-41.51951 -54.80742,-4.10331 -17.22578,87.16599c37.58164,91.2693 158.89741,236.3917 160.27749,277.51421c1.38008,41.12251 -117.17553,-21.75487 -99.84872,-96.15717c17.32681,-74.40229 170.53603,-160.3295 216.19919,-126.58143c45.66315,33.74806 -16.21976,187.1714 -5.35744,189.86061c10.86232,2.68922 94.46987,-145.35569 128.05372,-170.569c33.58385,-25.21331 17.14398,72.40497 -0.60863,130.07073c-17.75261,57.66576 -36.81796,75.37899 -69.20185,102.92402c-32.38389,27.54503 -78.08631,64.92185 -59.21886,55.0186c18.86745,-9.90325 102.30476,-67.08657 93.61501,-39.22624c-8.68975,27.86033 -106.32562,137.0866 -146.01076,130.49131z" fill="url(#color-2)"/><path d="M379.56367,915.10401c-13.48624,68.58759 18.39081,-35.86784 25.47206,-81.38561c7.08125,-45.51777 -10.63329,-32.09786 -51.74291,-47.07263c-41.10963,-14.97476 -105.61434,-58.34419 -110.43599,-87.63714c-4.82165,-29.29295 50.03976,-44.50942 60.03672,-91.14446c9.99696,-46.63504 -24.87054,-124.68865 -31.54345,-70.89294c-6.67291,53.7957 14.84877,239.44072 38.28628,318.93988c23.43752,79.49916 48.79087,52.85248 32.23469,38.68096c-16.55618,-14.17151 -75.02189,-15.86785 -52.05059,-95.87225c22.9713,-80.0044 127.37962,-238.31685 156.46466,-239.05554c29.08504,-0.73869 -17.15319,156.09639 -24.45016,253.79111c-7.29697,97.69472 24.34734,136.24908 50.81997,59.20722c26.47263,-77.04185 47.7736,-269.67992 49.72883,-319.81288c1.95523,-50.13296 -15.43526,42.23918 -20.54028,34.11145c-5.10502,-8.12773 2.07544,-116.75533 -24.09302,-50.2153c-26.16846,66.54003 -84.70058,309.77054 -98.18682,378.35813z" fill="url(#color-3)"/><path d="M662.43633,915.10401c13.48624,68.58759 -18.39081,-35.86784 -25.47206,-81.38561c-7.08125,-45.51777 10.63329,-32.09786 51.74291,-47.07263c41.10963,-14.97476 105.61434,-58.34419 110.43599,-87.63714c4.82165,-29.29295 -50.03976,-44.50942 -60.03672,-91.14446c-9.99696,-46.63504 24.87054,-124.68865 31.54345,-70.89294c6.67291,53.7957 -14.84877,239.44072 -38.28628,318.93988c-23.43752,79.49916 -48.79087,52.85248 -32.23469,38.68096c16.55618,-14.17151 75.02189,-15.86785 52.05059,-95.87225c-22.9713,-80.0044 -127.37962,-238.31685 -156.46466,-239.05554c-29.08504,-0.73869 17.15319,156.09639 24.45016,253.79111c7.29697,97.69472 -24.34734,136.24908 -50.81997,59.20722c-26.47263,-77.04185 -47.7736,-269.67992 -49.72883,-319.81288c-1.95523,-50.13296 15.43526,42.23918 20.54028,34.11145c5.10502,-8.12773 -2.07544,-116.75533 24.09302,-50.2153c26.16846,66.54003 84.70058,309.77054 98.18682,378.35813z" fill="url(#color-4)"/></g></g></svg>