<?xml version="1.0" encoding="utf-8"?>
<!-- Generator: Adobe Illustrator 27.7.0, SVG Export Plug-In . SVG Version: 6.00 Build 0)  -->
<svg version="1.1" id="svgPrint" xmlns="http://www.w3.org/2000/svg" xmlns:xlink="http://www.w3.org/1999/xlink" x="0px" y="0px"
	 viewBox="0 0 432.6 117.2" style="enable-background:new 0 0 432.6 117.2;" xml:space="preserve">
<style type="text/css">
	.st0{opacity:0.9;fill:#FF4500;enable-background:new    ;}
</style>
<g>
	<ellipse class="st0" cx="37.9" cy="42.7" rx="4.5" ry="4.5"/>
	<ellipse class="st0" cx="69.4" cy="42.7" rx="4.5" ry="4.5"/>
	<ellipse class="st0" cx="48.4" cy="53.3" rx="4.5" ry="4.5"/>
	<ellipse class="st0" cx="69.4" cy="53.3" rx="4.5" ry="4.5"/>
	<ellipse class="st0" cx="58.9" cy="63.9" rx="4.5" ry="4.5"/>
	<ellipse class="st0" cx="69.4" cy="63.9" rx="4.5" ry="4.5"/>
	<ellipse class="st0" cx="69.4" cy="74.5" rx="4.5" ry="4.5"/>
	<ellipse class="st0" cx="48.4" cy="85.1" rx="4.5" ry="4.5"/>
	<ellipse class="st0" cx="58.9" cy="85.1" rx="4.5" ry="4.5"/>
	<ellipse class="st0" cx="100.9" cy="42.7" rx="4.5" ry="4.5"/>
	<ellipse class="st0" cx="111.4" cy="42.7" rx="4.5" ry="4.5"/>
	<ellipse class="st0" cx="90.4" cy="53.3" rx="4.5" ry="4.5"/>
	<ellipse class="st0" cx="121.9" cy="53.3" rx="4.5" ry="4.5"/>
	<ellipse class="st0" cx="90.4" cy="63.9" rx="4.5" ry="4.5"/>
	<ellipse class="st0" cx="121.9" cy="63.9" rx="4.5" ry="4.5"/>
	<ellipse class="st0" cx="100.9" cy="74.5" rx="4.5" ry="4.5"/>
	<ellipse class="st0" cx="111.4" cy="74.5" rx="4.5" ry="4.5"/>
	<ellipse class="st0" cx="142.9" cy="42.7" rx="4.5" ry="4.5"/>
	<ellipse class="st0" cx="174.3" cy="42.7" rx="4.5" ry="4.5"/>
	<ellipse class="st0" cx="142.9" cy="53.3" rx="4.5" ry="4.5"/>
	<ellipse class="st0" cx="174.3" cy="53.3" rx="4.5" ry="4.5"/>
	<ellipse class="st0" cx="142.9" cy="63.9" rx="4.5" ry="4.5"/>
	<ellipse class="st0" cx="174.3" cy="63.9" rx="4.5" ry="4.5"/>
	<ellipse class="st0" cx="153.4" cy="74.5" rx="4.5" ry="4.5"/>
	<ellipse class="st0" cx="163.8" cy="74.5" rx="4.5" ry="4.5"/>
	<ellipse class="st0" cx="247.8" cy="32.1" rx="4.5" ry="4.5"/>
	<ellipse class="st0" cx="226.8" cy="42.7" rx="4.5" ry="4.5"/>
	<ellipse class="st0" cx="237.3" cy="42.7" rx="4.5" ry="4.5"/>
	<ellipse class="st0" cx="247.8" cy="42.7" rx="4.5" ry="4.5"/>
	<ellipse class="st0" cx="216.3" cy="53.3" rx="4.5" ry="4.5"/>
	<ellipse class="st0" cx="247.8" cy="53.3" rx="4.5" ry="4.5"/>
	<ellipse class="st0" cx="216.3" cy="63.9" rx="4.5" ry="4.5"/>
	<ellipse class="st0" cx="247.8" cy="63.9" rx="4.5" ry="4.5"/>
	<ellipse class="st0" cx="226.8" cy="74.5" rx="4.5" ry="4.5"/>
	<ellipse class="st0" cx="237.3" cy="74.5" rx="4.5" ry="4.5"/>
	<ellipse class="st0" cx="247.8" cy="74.5" rx="4.5" ry="4.5"/>
	<ellipse class="st0" cx="279.3" cy="32.1" rx="4.5" ry="4.5"/>
	<ellipse class="st0" cx="268.8" cy="53.3" rx="4.5" ry="4.5"/>
	<ellipse class="st0" cx="279.3" cy="53.3" rx="4.5" ry="4.5"/>
	<ellipse class="st0" cx="279.3" cy="63.9" rx="4.5" ry="4.5"/>
	<ellipse class="st0" cx="268.8" cy="74.5" rx="4.5" ry="4.5"/>
	<ellipse class="st0" cx="279.3" cy="74.5" rx="4.5" ry="4.5"/>
	<ellipse class="st0" cx="289.7" cy="74.5" rx="4.5" ry="4.5"/>
	<ellipse class="st0" cx="321.2" cy="42.7" rx="4.5" ry="4.5"/>
	<ellipse class="st0" cx="331.7" cy="42.7" rx="4.5" ry="4.5"/>
	<ellipse class="st0" cx="310.7" cy="53.3" rx="4.5" ry="4.5"/>
	<ellipse class="st0" cx="321.2" cy="53.3" rx="4.5" ry="4.5"/>
	<ellipse class="st0" cx="331.7" cy="53.3" rx="4.5" ry="4.5"/>
	<ellipse class="st0" cx="342.2" cy="53.3" rx="4.5" ry="4.5"/>
	<ellipse class="st0" cx="310.7" cy="63.9" rx="4.5" ry="4.5"/>
	<ellipse class="st0" cx="321.2" cy="74.5" rx="4.5" ry="4.5"/>
	<ellipse class="st0" cx="331.7" cy="74.5" rx="4.5" ry="4.5"/>
	<ellipse class="st0" cx="342.2" cy="74.5" rx="4.5" ry="4.5"/>
	<ellipse class="st0" cx="394.7" cy="32.1" rx="4.5" ry="4.5"/>
	<ellipse class="st0" cx="373.7" cy="42.7" rx="4.5" ry="4.5"/>
	<ellipse class="st0" cx="384.2" cy="42.7" rx="4.5" ry="4.5"/>
	<ellipse class="st0" cx="394.7" cy="42.7" rx="4.5" ry="4.5"/>
	<ellipse class="st0" cx="363.2" cy="53.3" rx="4.5" ry="4.5"/>
	<ellipse class="st0" cx="394.7" cy="53.3" rx="4.5" ry="4.5"/>
	<ellipse class="st0" cx="363.2" cy="63.9" rx="4.5" ry="4.5"/>
	<ellipse class="st0" cx="394.7" cy="63.9" rx="4.5" ry="4.5"/>
	<ellipse class="st0" cx="373.7" cy="74.5" rx="4.5" ry="4.5"/>
	<ellipse class="st0" cx="384.2" cy="74.5" rx="4.5" ry="4.5"/>
	<ellipse class="st0" cx="394.7" cy="74.5" rx="4.5" ry="4.5"/>
</g>
</svg>
