<?xml version="1.0" encoding="UTF-8"?>
<svg id="svgPrint" xmlns="http://www.w3.org/2000/svg" version="1.1" viewBox="0 0 432.6 117.2">
  <!-- Generator: Adobe Illustrator 29.8.4, SVG Export Plug-In . SVG Version: 2.1.1 Build 6)  -->
  <defs>
    <style>
      .st0 {
        fill: #ff4500;
        isolation: isolate;
        opacity: .9;
      }
    </style>
  </defs>
  <circle class="st0" cx="37.9" cy="42.7" r="4.5"/>
  <circle class="st0" cx="69.4" cy="42.7" r="4.5"/>
  <circle class="st0" cx="48.4" cy="53.3" r="4.5"/>
  <circle class="st0" cx="69.4" cy="53.3" r="4.5"/>
  <circle class="st0" cx="58.9" cy="63.9" r="4.5"/>
  <circle class="st0" cx="69.4" cy="63.9" r="4.5"/>
  <circle class="st0" cx="69.4" cy="74.5" r="4.5"/>
  <circle class="st0" cx="48.4" cy="85.1" r="4.5"/>
  <circle class="st0" cx="58.9" cy="85.1" r="4.5"/>
  <circle class="st0" cx="100.9" cy="42.7" r="4.5"/>
  <circle class="st0" cx="111.4" cy="42.7" r="4.5"/>
  <circle class="st0" cx="90.4" cy="53.3" r="4.5"/>
  <circle class="st0" cx="121.9" cy="53.3" r="4.5"/>
  <circle class="st0" cx="90.4" cy="63.9" r="4.5"/>
  <circle class="st0" cx="121.9" cy="63.9" r="4.5"/>
  <circle class="st0" cx="100.9" cy="74.5" r="4.5"/>
  <circle class="st0" cx="111.4" cy="74.5" r="4.5"/>
  <circle class="st0" cx="142.9" cy="42.7" r="4.5"/>
  <circle class="st0" cx="174.3" cy="42.7" r="4.5"/>
  <circle class="st0" cx="142.9" cy="53.3" r="4.5"/>
  <circle class="st0" cx="174.3" cy="53.3" r="4.5"/>
  <circle class="st0" cx="142.9" cy="63.9" r="4.5"/>
  <circle class="st0" cx="174.3" cy="63.9" r="4.5"/>
  <circle class="st0" cx="153.4" cy="74.5" r="4.5"/>
  <circle class="st0" cx="163.8" cy="74.5" r="4.5"/>
  <circle class="st0" cx="247.8" cy="32.1" r="4.5"/>
  <circle class="st0" cx="226.8" cy="42.7" r="4.5"/>
  <circle class="st0" cx="237.3" cy="42.7" r="4.5"/>
  <circle class="st0" cx="247.8" cy="42.7" r="4.5"/>
  <circle class="st0" cx="216.3" cy="53.3" r="4.5"/>
  <circle class="st0" cx="247.8" cy="53.3" r="4.5"/>
  <circle class="st0" cx="216.3" cy="63.9" r="4.5"/>
  <circle class="st0" cx="247.8" cy="63.9" r="4.5"/>
  <circle class="st0" cx="226.8" cy="74.5" r="4.5"/>
  <circle class="st0" cx="237.3" cy="74.5" r="4.5"/>
  <circle class="st0" cx="247.8" cy="74.5" r="4.5"/>
  <circle class="st0" cx="279.3" cy="32.1" r="4.5"/>
  <circle class="st0" cx="268.8" cy="53.3" r="4.5"/>
  <circle class="st0" cx="279.3" cy="53.3" r="4.5"/>
  <circle class="st0" cx="279.3" cy="63.9" r="4.5"/>
  <circle class="st0" cx="268.8" cy="74.5" r="4.5"/>
  <circle class="st0" cx="279.3" cy="74.5" r="4.5"/>
  <circle class="st0" cx="289.7" cy="74.5" r="4.5"/>
  <circle class="st0" cx="321.2" cy="42.7" r="4.5"/>
  <circle class="st0" cx="331.7" cy="42.7" r="4.5"/>
  <circle class="st0" cx="310.7" cy="53.3" r="4.5"/>
  <circle class="st0" cx="321.2" cy="53.3" r="4.5"/>
  <circle class="st0" cx="331.7" cy="53.3" r="4.5"/>
  <circle class="st0" cx="342.2" cy="53.3" r="4.5"/>
  <circle class="st0" cx="310.7" cy="63.9" r="4.5"/>
  <circle class="st0" cx="321.2" cy="74.5" r="4.5"/>
  <circle class="st0" cx="331.7" cy="74.5" r="4.5"/>
  <circle class="st0" cx="342.2" cy="74.5" r="4.5"/>
  <circle class="st0" cx="394.7" cy="32.1" r="4.5"/>
  <circle class="st0" cx="373.7" cy="42.7" r="4.5"/>
  <circle class="st0" cx="384.2" cy="42.7" r="4.5"/>
  <circle class="st0" cx="394.7" cy="42.7" r="4.5"/>
  <circle class="st0" cx="363.2" cy="53.3" r="4.5"/>
  <circle class="st0" cx="394.7" cy="53.3" r="4.5"/>
  <circle class="st0" cx="363.2" cy="63.9" r="4.5"/>
  <circle class="st0" cx="394.7" cy="63.9" r="4.5"/>
  <circle class="st0" cx="373.7" cy="74.5" r="4.5"/>
  <circle class="st0" cx="384.2" cy="74.5" r="4.5"/>
  <circle class="st0" cx="394.7" cy="74.5" r="4.5"/>
</svg>