<?xml version="1.0" encoding="utf-8"?>
<!-- Generator: Adobe Illustrator 27.7.0, SVG Export Plug-In . SVG Version: 6.00 Build 0)  -->
<svg version="1.1" id="Layer_1" xmlns="http://www.w3.org/2000/svg" xmlns:xlink="http://www.w3.org/1999/xlink" x="0px" y="0px"
	 viewBox="0 0 683 257.5" style="enable-background:new 0 0 683 257.5;" xml:space="preserve">
<style type="text/css">
	.st0{fill:#FF4500;}
</style>
<g>
	<rect x="591" y="215.7" class="st0" width="3" height="3"/>
	<rect x="480" y="215.7" class="st0" width="3" height="3"/>
	<rect x="471" y="215.7" class="st0" width="3" height="3"/>
	<rect x="450" y="215.7" class="st0" width="3" height="3"/>
	<polygon class="st0" points="360,215.7 360,218.7 363,218.7 366,218.7 366,215.7 363,215.7 	"/>
	<rect x="576" y="212.7" class="st0" width="3" height="3"/>
	<rect x="483" y="212.7" class="st0" width="3" height="3"/>
	<polygon class="st0" points="126,206.7 126,203.7 123,203.7 123,200.7 120,200.7 120,203.7 117,203.7 117,206.7 117,209.7 
		120,209.7 123,209.7 123,206.7 	"/>
	<polygon class="st0" points="120,200.7 120,197.7 120,194.7 120,191.7 117,191.7 114,191.7 114,188.7 114,185.7 114,182.7 
		114,179.7 114,176.7 111,176.7 108,176.7 108,173.7 111,173.7 111,170.7 111,167.7 111,164.7 108,164.7 108,161.7 105,161.7 
		105,158.7 108,158.7 108,161.7 111,161.7 111,158.7 111,155.7 111,152.7 108,152.7 108,155.7 105,155.7 105,152.7 108,152.7 
		108,149.7 105,149.7 105,146.7 102,146.7 102,149.7 99,149.7 99,152.7 99,155.7 99,158.7 99,161.7 102,161.7 102,164.7 99,164.7 
		99,167.7 102,167.7 102,170.7 105,170.7 105,167.7 108,167.7 108,170.7 105,170.7 105,173.7 102,173.7 102,176.7 105,176.7 
		105,179.7 102,179.7 102,182.7 105,182.7 108,182.7 108,179.7 111,179.7 111,182.7 108,182.7 108,185.7 105,185.7 105,188.7 
		105,191.7 108,191.7 108,194.7 108,197.7 111,197.7 114,197.7 114,194.7 117,194.7 117,197.7 114,197.7 114,200.7 114,203.7 
		117,203.7 117,200.7 	"/>
	<rect x="357" y="179.7" class="st0" width="3" height="3"/>
	<path class="st0" d="M579,176.7v3h-3v3v3v3h-3v3v3v3h-3v3h-3v3h-3h-3v3h-3h-3h-3h-3h-3h-3h-3h-3h-3h-3v-3h-3v3h-3v-3h-3v-3h3v3h3
		v-3v-3h-3h-3v-3h3v-3h-3v-3h3v-3h-3v-3h3v-3h-3v-3h3v-3h-3v-3h3v-3h-3v-3h3v-3h-3v-3h3v-3h-3v-3h3v-3h-3v-3h3v-3h-3v-3h3v-3h-3v-3
		h3v-3h-3v-3h3h3v-3h3h3h3h3h3h3h3h3v-3h-3h-3h-3h-3h-3h-3h-3v-3h-3v3h-3v3h-3v-3h3v-3h3v-3h3v3h3v-3h3v3h3v-3h3v3h3v-3h3v3h3v-3h3
		v3h-3v3h3h3v-3h3v3h-3v3h3h3v-3h3v3h-3v3h-3v3h3h3v-3h3v-3v-3v-3h-3v-3h-3v-3h3v3h3v-3v-3h-3v-3h3v-3v-3v-3v-3v-3v-3h-3v3h-3v3v3v3
		v3h-3v3v3h-3h-3h-3v3h-3h-3h-3h-3h-3h-3h-3v-3h-3h-3v3h-3v-3h3v-3h-3v-3h3v-3h-3v-3h3v-3h-3v-3h3v-3h-3v-3h3v-3h-3v-3h3v-3h-3v-3h3
		v-3h-3v-3h3v-3h-3v-3h3v-3h-3v-3h3v-3h-3v-3h3v-3h-3v-3h3v-3v-3h3v-3h-3v-3h3v3h3v-3h3v3h3v-3h3v3h3v-3h3v3h3v-3h3v3h3v-3h3v3h3v-3
		h3v3h-3v3h-3v-3h-3v3h-3h-3h-3h-3h-3h-3h-3v3h3h3h3h3h3h3h3h3h3h3h3h3v3v3v3v3h3v3v3v3v3h3v-3h3v-3v-3v-3v-3v-3v-3v-3h-3h-3v-3h3
		v-3h-3v-3h3v-3h-3v-3h-3v3h-3h-3h-3h-3h-3v-3h-3v3h-3h-3h-3h-3h-3h-3h-3h-3h-3h-3h-3h-3h-3v-3h-3h-3v3h-3h-3v3h3v3h3h3h3v-3h3v3h-3
		v3v3h3h3v-3h3v3h-3v3h-3v3v3v3v3v3v3v3h3v3h-3v3h3v3h-3v3v3v3v3v3v3v3v3v3v3v3h3v3h-3v3v3v3h3v3h-3v3h3v3h-3v3h3v3h-3v3v3v3v3v3v3
		v3v3v3v3v3h3v3h-3v3h3v3h-3v3v3v3v3v3v3v3v3h-3v3v3h-3h-3v3h-3v3h-3v3h3h3h3v-3h3v3h3v-3h3v3h-3v3h3h3h3h3h3h3h3h3h3h3h3h3h3h3h3h3
		h3h3h3h3v-3h-3v-3h-3v-3h3v3h3v-3h3v-3h-3v-3h3v-3h-3v-3h3v-3v-3h3v-3v-3v-3v-3v-3v-3h-3V176.7z M561,113.7v3h-3v-3H561z M570,32.7
		v3h-3v-3H570z M519,35.7v-3h3v3H519z M561,209.7v3h-3v-3H561z M555,209.7v3h-3v-3H555z M519,209.7v-3h3v3h3v3h-3v-3H519z
		 M531,215.7v-3h-3v-3h3v3h3v-3h3v3h-3v3H531z M540,215.7v-3h3v-3h3v3h-3v3H540z M567,212.7h-3v-3h3V212.7z M573,206.7h-3v-3h3
		V206.7z"/>
	<polygon class="st0" points="357,173.7 360,173.7 360,170.7 360,167.7 357,167.7 357,170.7 354,170.7 354,173.7 354,176.7 
		354,179.7 357,179.7 357,176.7 	"/>
	<rect x="354" y="164.7" class="st0" width="3" height="3"/>
	<rect x="357" y="161.7" class="st0" width="3" height="3"/>
	<rect x="354" y="158.7" class="st0" width="3" height="3"/>
	<rect x="357" y="155.7" class="st0" width="3" height="3"/>
	<rect x="354" y="152.7" class="st0" width="3" height="3"/>
	<rect x="357" y="149.7" class="st0" width="3" height="3"/>
	<rect x="354" y="146.7" class="st0" width="3" height="3"/>
	<rect x="357" y="143.7" class="st0" width="3" height="3"/>
	<rect x="354" y="140.7" class="st0" width="3" height="3"/>
	<path class="st0" d="M105,143.7v3h3v-3v-3h-3v-3h-3v-3h3v3h3v-3v-3h-3v-3h-3v-3h3v3h3v-3v-3h-3v-3h-3v-3h3v3h3v-3v-3h-3v-3h-3v-3h3
		v3h3v-3v-3h-3v-3h-3v-3h3v3h3v-3v-3h-3v-3h3h3v-3v-3v-3h-3v-3h-3v-3h3v3h3v-3v-3h-3v-3h3v-3h-3v-3h3v3h3v-3v-3h-3v-3h3v-3v-3v-3h3
		v-3h3v-3h-3v-3h3v-3h3v-3h3v-3h3v-3h3v3h3h3h3v3h3h3h3v-3h3v-3h-3v-3h-3h-3v-3h-3h-3h-3h-3v3h-3h-3h-3v3h-3v3h-3v3v3h-3v3v3h-3v3
		h-3v3v3h-3v3v3v3h-3v3v3v3v3h-3v3v3h3v3h-3v3v3v3v3v3h-3v3h3v3h-3v3v3h3v3h-3v3v3h3v3h-3v3v3h3v3h-3v3v3h3v3h-3v3v3h3h3v-3H105z
		 M108,89.7h-3v-3h3V89.7z"/>
	<rect x="357" y="137.7" class="st0" width="3" height="3"/>
	<polygon class="st0" points="564,134.7 564,137.7 564,140.7 564,143.7 564,146.7 567,146.7 567,149.7 570,149.7 570,146.7 
		570,143.7 570,140.7 570,137.7 570,134.7 570,131.7 567,131.7 567,134.7 	"/>
	<rect x="354" y="134.7" class="st0" width="3" height="3"/>
	<rect x="357" y="131.7" class="st0" width="3" height="3"/>
	<rect x="354" y="128.7" class="st0" width="3" height="3"/>
	<rect x="357" y="125.7" class="st0" width="3" height="3"/>
	<rect x="354" y="122.7" class="st0" width="3" height="3"/>
	<rect x="357" y="119.7" class="st0" width="3" height="3"/>
	<rect x="354" y="116.7" class="st0" width="3" height="3"/>
	<rect x="357" y="113.7" class="st0" width="3" height="3"/>
	<rect x="354" y="110.7" class="st0" width="3" height="3"/>
	<rect x="357" y="107.7" class="st0" width="3" height="3"/>
	<rect x="354" y="104.7" class="st0" width="3" height="3"/>
	<path class="st0" d="M663,101.7h-3v-3h-3v-3h3v3h3v-3v-3h-3v-3h-3v-3h3v3h3v-3v-3h-3h-3v-3h-3v3h-3v3v3h3v3h-3v3v3h3v3v3v3v3v3v3v3
		v3v3v3v3v3v3v3v3v3v3v3h-3v3h3v3h-3v3v3v3v3h-3v3h3v3h-3v3h-3v3v3v3h-3v3h-3v3h-3v3h-3v3h-3v3h-3h-3h-3v3h-3h-3h-3h-3v-3h-3v-3v-3
		h-3v-3h3v-3h-3v-3h3v-3h-3v-3h3v-3h-3v-3h3v-3h-3v-3h3v-3h-3v-3h3v-3h-3v-3h3v-3h-3v-3h3v-3h-3v-3h3v-3h-3v-3h3v-3h-3v-3h3v-3h-3
		v-3h3v-3h-3v-3h3v-3h-3v-3h3v-3h-3v-3h3v-3h-3v-3h3v-3h-3v-3h3v-3h-3v-3h3v-3h-3v-3h3v-3h-3v-3h3v-3h-3v-3h3v-3h-3v-3h3v-3h-3v-3h3
		v-3h-3v-3h3v-3h-3v-3h3v-3h-3v-3h3v-3h3h3h3h3h3h3h3h3v-3h3v3v3h3v3v3v3h3h3h3v-3h3v3h-3v3h-3v3v3h3v3v3h3v3v3v3v3h3h3v-3h3v3h3v-3
		v-3h-3v-3h-3v-3h3v3h3v-3v-3h-3h-3v-3h-3v-3h3v3h3v-3v-3h-3h-3v-3h3v-3h-3v-3v-3h-3v3h-3v-3h3v-3h-3v-3h-3h-3v3h3v3h-3v-3h-3v-3h3
		v-3h-3v-3h-3v3h-3v-3h3v-3h-3h-3h-3h-3h-3h-3h-3h-3h-3h-3h-3h-3h-3v-3h-3h-3v3h-3v3v3v3h3v-3h3h3v-3h3v3h-3v3v3h3v3v3v3v3v3v3v3v3
		v3v3v3v3v3v3v3v3v3v3v3v3v3v3v3v3v3v3v3v3v3v3v3v3v3v3v3v3v3v3v3v3v3v3v3v3v3v3v3v3v3v3v3v3v3h-3v3v3h-3h-3v3h-3v3v3h3h3v-3h3v3h3
		h3v-3h3v3h-3v3h3h3h3v-3h3h3v-3h3h3v-3h3v3h-3v3h-3h-3v3h3h3h3h3h3v-3h3h3v-3h3v-3h3v-3h3v-3h3v-3h3v-3v-3h3v-3v-3h3v-3v-3v-3h-3
		v-3h3v3h3v-3v-3v-3h-3v3h-3v-3h3v-3h-3v-3h3v3h3v-3h3v-3v-3v-3v-3v-3v-3h3v-3h-3h-3v-3h3h3v-3v-3v-3v-3v-3v-3v-3v-3v-3v-3v-3v-3v-3
		H663z M627,32.7v3h-3v-3H627z M609,32.7v3h3v-3h3v3h3v-3h3v3h-3v3h-3h-3h-3v-3h-3v-3H609z M600,32.7h3v3h-3V32.7z M600,38.7h3v3h-3
		V38.7z M603,200.7v3h-3v-3H603z M597,209.7v-3h3v3H597z M603,206.7h3v3h-3V206.7z M609,212.7v-3h3v3H609z M633,206.7v3h-3v-3H633z
		 M639,203.7v-3h3v3H639z M648,197.7h-3v-3h3V197.7z M651,191.7h-3v-3h3V191.7z M654,185.7h-3v-3h3V185.7z M660,161.7h-3v-3h3V161.7
		z M660,155.7h-3v-3h3V155.7z M660,149.7h-3v-3h3V149.7z M663,137.7h-3v-3h3V137.7z M663,131.7h-3v-3h3V131.7z M663,125.7h-3v-3h3
		V125.7z M663,119.7h-3v-3h3V119.7z M663,113.7h-3v-3h3V113.7z M663,107.7h-3v-3h3V107.7z"/>
	<rect x="357" y="101.7" class="st0" width="3" height="3"/>
	<path class="st0" d="M66,101.7h-3v3h-3v3v3v3h-3v3h-3v-3h3v-3v-3h-3v3h-3v-3h3v-3v-3v-3h-3h-3v-3h-3v3h-3v3v3h3v3v3h3v3h-3v3h3v3v3
		h3v3v3v3v3h3v3h-3v3h3v3h-3v3h3v3h-3v3h3v3h-3v3h3v3h-3v3h3v3h-3v3h3v3h-3v3h3v3h-3v3v3v3v3v3v3v3h-3v3v3h-3h-3v3h-3v3v3h3h3v-3h3
		v3h-3v3h3h3h3h3h3h3v-3h-3v-3h-3v-3h3v3h3v-3h3v3h-3v3h3h3v-3h3v3h-3v3h3h3v-3v-3v-3h-3h-3v-3h-3h-3h-3v-3h3v-3v-3v-3h-3h-3v-3h3h3
		v-3h-3h-3v-3h3h3v-3h-3h-3v-3h3h3v-3h-3h-3v-3h3h3v-3h-3h-3v-3h3h3v-3h-3h-3v-3h3h3v-3h-3h-3v-3h3h3v-3h-3h-3v-3h3h3v-3h-3h-3v-3h3
		h3v-3h-3h-3v-3h3v-3h-3v-3h3v3h3v-3v-3v-3v-3h-3v-3h3h3v-3v-3v-3h3v-3v-3h3v-3v-3h-3v3H66z M48,101.7h3v3h-3V101.7z M54,212.7h-3
		v-3h3V212.7z M57,206.7h-3v-3h3V206.7z M60,197.7v3h-3v-3H60z M60,128.7h-3v-3h3V128.7z M57,122.7h-3v-3h3V122.7z"/>
	<rect x="354" y="98.7" class="st0" width="3" height="3"/>
	<rect x="357" y="95.7" class="st0" width="3" height="3"/>
	<rect x="354" y="92.7" class="st0" width="3" height="3"/>
	<rect x="357" y="89.7" class="st0" width="3" height="3"/>
	<rect x="174" y="89.7" class="st0" width="3" height="3"/>
	<path class="st0" d="M171,89.7h3v-3h-3v-3h3v-3h-3v-3h3v-3h-3v-3h-3v-3h3v-3v-3h-3v3h-3v3h-3v3h3v3h-3v3h3v3v3v3v3v3v3v3v3h3v3h-3
		v3v3h3v3h-3v3h3v3h-3v3h3v3h-3v3h3v3h-3v3h3v3h-3v3h3v3h-3v3v3v3v3v3v3v3v3h-3v3v3v3v3h-3v3h3v3h-3v3v3h-3v3v3h-3v3v3h-3v3h-3h-3v3
		h-3h-3v3h-3v-3h-3h-3v-3h-3v3h-3v3h-3v3h3h3h3v-3h3v3h-3v3v3h3h3h3h3h3h3v-3h3h3v-3v-3h-3v-3h3v3h3v-3h3v-3h3v-3v-3h-3v-3h3v3h3v-3
		v-3h-3v-3h3v3h3v-3v-3h-3v-3h3h3v-3v-3h-3v3h-3v-3h3v-3h3v-3h3v-3v-3h-3v-3h3v-3h-3v-3h3h3v-3v-3v-3v-3v-3h-3v-3h-3v-3h3v3h3v-3v-3
		v-3v-3v-3v-3v-3v-3v-3v-3v-3v-3h-3v-3h-3v-3h3v3h3v-3v-3h-3v-3h-3V89.7z M174,155.7h-3v-3h3V155.7z M174,149.7h-3v-3h3V149.7z
		 M174,134.7h-3v-3h3V134.7z M174,128.7h-3v-3h3V128.7z M174,122.7h-3v-3h3V122.7z M174,116.7h-3v-3h3V116.7z M174,110.7h-3v-3h3
		V110.7z"/>
	<path class="st0" d="M48,92.7v3h3v-3v-3h-3h-3v-3h3v-3v-3v-3h-3h-3v-3h-3v3h-3v3v3h3v3h-3v3h3v3v3h3h3v-3H48z M42,80.7h3v3h-3V80.7
		z"/>
	<path class="st0" d="M417,89.7h-3v-3h-3v3h-3v3v3v3v3h3v3h-3v3v3h3v3h-3v3v3h3v3h-3v3v3h3v3h-3v3v3h3v3h-3v3v3h3v3h-3v3v3v3v3h-3v3
		v3h3v3h-3v3v3h-3v3v3v3h-3v3v3h-3v3h-3v3h-3v3h-3h-3v3h-3h-3v3h-3h-3h-3h-3v-3h-3v-3v-3h-3h-3v-3h3v-3h-3v-3h3v-3h-3v-3h-3v3v3v3v3
		v3v3h-3v3h-3v3h-3v3h-3v3h-3v3v3h3v-3h3h3v-3h3v3h3v-3h3v3h3v-3h3h3v-3h3v3h-3v3h3h3v-3h3h3v-3h3v3h-3v3h-3h-3v3h3h3h3h3h3v-3h3h3
		v-3h3v-3h3v-3h3v-3h3v-3h3v-3v-3h3v-3v-3h3v-3v-3v-3v-3h-3v-3h3v3h3v-3v-3h-3v-3h-3v-3h3v3h3v-3v-3h-3v-3h3h3v-3v-3v-3h-3v-3h-3v-3
		h3v3h3v-3v-3h-3v-3h-3v-3h3v3h3v-3v-3h-3v-3h-3v-3h3v3h3v-3v-3h-3v-3h-3v-3h3v3h3v-3v-3h-3v-3h-3v-3h3v3h3v-3v-3h-3v-3h-3v-3h3v3h3
		v-3v-3v-3v-3v-3h-3V89.7z M360,200.7v3h-3v-3H360z M354,209.7v-3h3v3H354z M360,209.7v-3h3v3H360z M396,200.7v3h-3v-3H396z
		 M390,209.7h-3v-3h3V209.7z M399,200.7v-3h3v3H399z M402,194.7v-3h3v3H402z M405,188.7v-3h3v3H405z M411,182.7h-3v-3h3V182.7z
		 M417,155.7h-3v-3h3V155.7z M417,95.7h-3v-3h3V95.7z"/>
	<rect x="354" y="86.7" class="st0" width="3" height="3"/>
	<rect x="357" y="83.7" class="st0" width="3" height="3"/>
	<rect x="354" y="80.7" class="st0" width="3" height="3"/>
	<rect x="357" y="77.7" class="st0" width="3" height="3"/>
	<path class="st0" d="M360,74.7v-3h-3v-3h3v-3h-3v-3h3v-3h-3v-3h3v-3h-3v-3h3v-3h-3v-3h3h3v-3h3h3v-3h-3v-3h-3v-3h3v3h3v-3h3v3h3v-3
		h3v3h-3v3h-3v3h3h3h3v3h3h3h3v3v3h3h3h3v-3h3v3h-3v3h-3v3h3v3h3h3v-3h3v3h-3v3h-3v3v3h3v3v3v3h3v3h-3v3v3h3h3v-3h3v3h3v-3v-3h-3v-3
		h-3v-3h3v3h3v-3v-3v-3h-3v3h-3v-3h-3v-3h3v3h3v-3v-3h-3v-3v-3v-3h-3h-3v-3h3v-3h-3v-3h-3h-3v-3v-3h-3v3h-3v-3h3v-3h-3v-3h-3v-3h-3
		h-3h-3h-3h-3h-3h-3h-3h-3h-3v-3h-3h-3h-3h-3h-3h-3v3h-3v3h3v3h3h3h3v-3h3v3h-3v3h-3v3h3v3v3h3v3h-3v3h3v3h-3v3h3v3h-3v3h3v3v3v3v3
		h3v-3H360z M390,38.7h-3v3h-3v-3h3v-3h3V38.7z M384,32.7v3h-3v-3H384z M357,41.7v-3h3v3H357z M357,32.7h3v3h-3V32.7z"/>
	<polygon class="st0" points="42,71.7 42,74.7 45,74.7 45,71.7 45,68.7 42,68.7 39,68.7 39,65.7 36,65.7 36,68.7 33,68.7 33,71.7 
		33,74.7 36,74.7 39,74.7 39,71.7 	"/>
	<polygon class="st0" points="39,62.7 39,65.7 42,65.7 42,62.7 42,59.7 39,59.7 36,59.7 36,56.7 39,56.7 39,53.7 39,50.7 36,50.7 
		36,53.7 33,53.7 33,56.7 30,56.7 30,59.7 33,59.7 33,62.7 30,62.7 30,65.7 33,65.7 36,65.7 36,62.7 	"/>
	<polygon class="st0" points="162,53.7 162,56.7 159,56.7 159,59.7 162,59.7 162,62.7 159,62.7 159,65.7 162,65.7 165,65.7 
		165,62.7 168,62.7 168,59.7 165,59.7 165,56.7 168,56.7 168,53.7 168,50.7 165,50.7 165,53.7 	"/>
	<polygon class="st0" points="81,50.7 78,50.7 78,53.7 78,56.7 75,56.7 75,59.7 75,62.7 75,65.7 72,65.7 72,68.7 72,71.7 72,74.7 
		72,77.7 69,77.7 69,80.7 69,83.7 69,86.7 66,86.7 66,89.7 66,92.7 66,95.7 63,95.7 63,98.7 66,98.7 69,98.7 69,95.7 69,92.7 
		72,92.7 72,89.7 75,89.7 75,86.7 75,83.7 75,80.7 75,77.7 78,77.7 78,74.7 78,71.7 78,68.7 81,68.7 81,65.7 81,62.7 81,59.7 
		84,59.7 84,56.7 84,53.7 87,53.7 87,50.7 87,47.7 84,47.7 84,50.7 	"/>
	<polygon class="st0" points="159,47.7 159,50.7 156,50.7 156,53.7 159,53.7 162,53.7 162,50.7 165,50.7 165,47.7 165,44.7 
		162,44.7 162,47.7 	"/>
	<path class="st0" d="M36,50.7v-3v-3h3v-3v-3v-3h-3v-3h3v3h3v-3h3v3h3v-3v-3h-3h-3h-3h-3h-3h-3h-3h-3h-3h-3h-3v3v3h3h3h3v-3h3v3h-3
		v3h-3v3h3h3v-3h3v3h-3v3h-3v3h3h3v-3h3v3h-3v3h-3v3h3h3v-3H36z M30,32.7h3v3h-3V32.7z M33,38.7h3v3h-3V38.7z"/>
	<polygon class="st0" points="153,44.7 153,47.7 156,47.7 159,47.7 159,44.7 162,44.7 162,41.7 159,41.7 156,41.7 156,44.7 	"/>
	<polygon class="st0" points="78,44.7 78,47.7 81,47.7 84,47.7 84,44.7 81,44.7 	"/>
	<rect x="120" y="41.7" class="st0" width="3" height="3"/>
	<rect x="123" y="38.7" class="st0" width="3" height="3"/>
	<polygon class="st0" points="150,35.7 150,38.7 147,38.7 147,41.7 150,41.7 153,41.7 156,41.7 156,38.7 159,38.7 159,35.7 
		156,35.7 156,32.7 153,32.7 153,35.7 	"/>
	<rect x="126" y="35.7" class="st0" width="3" height="3"/>
	<path class="st0" d="M96,35.7v-3v-3h-3h-3h-3h-3h-3h-3h-3h-3v3v3h3h3h3v-3h3v3h-3v3h-3v3h3h3v-3h3v3h-3v3h3h3v-3v-3h3h3V35.7z
		 M87,35.7v-3h3v3H87z"/>
	<rect x="129" y="32.7" class="st0" width="3" height="3"/>
	<path class="st0" d="M483,29.7h-3h-3h-3h-3h-3h-3h-3h-3h-3h-3v-3h-3h-3v3h-3h-3h-3v3h3v3h3h3h3v-3h3v3h3v-3h3v3h-3v3h-3h-3v3h3h3h3
		v-3h3v3h-3v3h-3v3h3v3h-3v3v3h3v3h-3v3h3v3h-3v3h3v3h-3v3h3v3h-3v3h3v3h-3v3h3v3h-3v3h3v3h-3v3h3v3h-3v3h3v3h-3v3h3v3h-3v3h3v3h-3
		v3h3v3h-3v3h3v3h-3v3h3v3h-3v3h3v3h-3v3h3v3h-3v3h3v3h-3v3h3v3h-3v3h3v3h-3v3h3v3h-3v3h3v3h-3v3h3v3h-3v3h3v3h-3v3h3v3h-3v3v3v3v3
		h-3v-3h-3h-3v3h-3h-3v3h-3v3h3v3h3v-3h3h3v-3h3v3h3h3v-3h3v3h3v-3h3v3h3v-3h3v3h3h3v-3h3v-3h-3h-3h-3v-3h-3v3h-3v-3h3v-3h-3h-3v-3
		h-3v-3h3v3h3v-3v-3v-3v-3v-3v-3v-3v-3v-3v-3v-3v-3v-3v-3v-3v-3v-3v-3v-3v-3v-3v-3v-3v-3v-3v-3v-3v-3v-3v-3v-3v-3v-3v-3v-3v-3v-3v-3
		v-3v-3v-3v-3v-3v-3v-3v-3v-3v-3v-3v-3h-3v-3h-3v-3h3v3h3v-3v-3h-3v-3h3v3h3h3v-3h-3v-3h-3v-3h3v3h3v-3h3v3h-3v3h3h3h3v-3h3v-3h-3
		V29.7z M465,206.7v3h-3v-3h-3v-3h3v3H465z M465,194.7h-3v-3h3V194.7z M465,188.7h-3v-3h3V188.7z M465,182.7h-3v-3h3V182.7z
		 M465,176.7h-3v-3h3V176.7z M465,170.7h-3v-3h3V170.7z M465,164.7h-3v-3h3V164.7z M465,158.7h-3v-3h3V158.7z M465,152.7h-3v-3h3
		V152.7z M465,146.7h-3v-3h3V146.7z M465,140.7h-3v-3h3V140.7z M465,134.7h-3v-3h3V134.7z M465,128.7h-3v-3h3V128.7z M465,122.7h-3
		v-3h3V122.7z M465,116.7h-3v-3h3V116.7z M465,110.7h-3v-3h3V110.7z M465,104.7h-3v-3h3V104.7z M465,98.7h-3v-3h3V98.7z M465,92.7
		h-3v-3h3V92.7z M465,86.7h-3v-3h3V86.7z M465,80.7h-3v-3h3V80.7z M465,74.7h-3v-3h3V74.7z M465,68.7h-3v-3h3V68.7z M465,62.7h-3v-3
		h3V62.7z M465,56.7h-3v-3h3V56.7z"/>
	<path class="st0" d="M255,26.7h-3h-3h-3h-3h-3h-3h-3v3v3v3h3v3h3v3h3h3v-3h3v3h-3v3h-3v3v3v3v3v3v3v3v3v3v3v3v3v3v3v3v3v3v3v3v3v3
		v3v3v3v3v3v3v3v3v3v3v3v3v3v3v3v3v3v3v3v3v3v3v3v3h-3v3v3v3v3h-3v3v3v3h-3v3h-3v3h-3v3h-3h-3h-3h-3h-3v3h3v3h-3v-3h-3v-3h3v-3h-3
		v-3h-3v-3h-3v3h-3v-3h3v-3v-3v-3h-3v-3v-3h-3v-3h-3v-3h3v3h3v-3v-3h-3h-3v-3h3v-3h-3v-3h-3v-3h3v3h3v-3v-3v-3v-3v-3v-3v-3v-3v-3v-3
		v-3v-3v-3v-3v-3v-3v-3v-3v-3v-3v-3v-3v-3v-3v-3v-3v-3v-3v-3v-3v-3v-3v-3v-3v-3v-3v-3v-3v-3v-3v-3h3v-3h3v-3h3v-3h3v-3v-3h-3v-3h-3
		h-3h-3h-3h-3h-3h-3h-3h-3v3h-3v3h3v3h3h3v-3h3v3h-3v3h-3v3h3h3v-3h3v3h-3v3h-3v3h3v3h-3v3h3v3h-3v3h3v3h-3v3h3v3h-3v3h3v3h-3v3h3v3
		h-3v3h3v3h-3v3h3v3h-3v3h3v3h-3v3h3v3h-3v3h3v3h-3v3h3v3h-3v3h3v3h-3v3h3v3h-3v3h3v3h-3v3h3v3h-3v3h3v3h-3v3h3v3h-3v3h3v3h-3v3h3v3
		h-3v3h3v3v3v3v3v3h3v3h-3v3v3h3h3v-3h3v3h-3v3h-3v3h3v3v3h3v3v3h3h3v-3h3v3h-3v3h-3v3h3v3h3v3h3h3h3h3h3h3h3v-3h3v-3h3v-3h3v-3h3
		v-3v-3h3v-3v-3v-3h3v-3v-3v-3v-3v-3v-3v-3v-3h3v-3v-3v-3v-3v-3v-3v-3v-3v-3v-3v-3v-3v-3v-3v-3v-3v-3v-3v-3v-3v-3v-3v-3v-3v-3v-3v-3
		v-3v-3v-3v-3v-3v-3v-3v-3v-3v-3v-3v-3v-3v-3v-3h3v-3h3v-3v-3h3v-3v-3h-3V26.7z M195,38.7h3v-3h-3v-3h-3v-3h3v3h3v3h3v-3h3v3h-3v3
		h-3v3h-3V38.7z M192,44.7h3v3h-3V44.7z M192,50.7h3v3h-3V50.7z M192,56.7h3v3h-3V56.7z M192,62.7h3v3h-3V62.7z M192,68.7h3v3h-3
		V68.7z M192,74.7h3v3h-3V74.7z M192,80.7h3v3h-3V80.7z M192,86.7h3v3h-3V86.7z M192,92.7h3v3h-3V92.7z M192,98.7h3v3h-3V98.7z
		 M192,104.7h3v3h-3V104.7z M192,110.7h3v3h-3V110.7z M192,116.7h3v3h-3V116.7z M192,122.7h3v3h-3V122.7z M192,128.7h3v3h-3V128.7z
		 M192,134.7h3v3h-3V134.7z M192,140.7h3v3h-3V140.7z M192,146.7h3v3h-3V146.7z M192,152.7h3v3h-3V152.7z M192,158.7h3v3h-3V158.7z
		 M198,194.7h3v3h-3V194.7z M225,215.7v3h-3v-3h-3v-3h3v3H225v-3h3v3H225z M249,35.7v-3h-3v-3h3v3h3v3H249z"/>
</g>
</svg>
